{
  "accessors": [
    {
      "bufferView": 2,
      "componentType": 5126,
      "count": 364,
      "max": [
        0.5603468418121338,
        0.23726142942905426,
        1.90009343624115
      ],
      "min": [
        -0.5603468418121338,
        -0.23726262152194977,
        3.725290298461914e-08
      ],
      "type": "VEC3"
    },
    {
      "bufferView": 2,
      "byteOffset": 4368,
      "componentType": 5126,
      "count": 364,
      "max": [
        1.0,
        1.0,
        1.0
      ],
      "min": [
        -1.0,
        -1.0,
        -1.0
      ],
      "type": "VEC3"
    },
    {
      "bufferView": 3,
      "componentType": 5126,
      "count": 364,
      "max": [
        1.0,
        1.0,
        1.0,
        1.0
      ],
      "min": [
        -1.0,
        -1.0,
        -1.0,
        1.0
      ],
      "type": "VEC4"
    },
    {
      "bufferView": 1,
      "componentType": 5126,
      "count": 364,
      "max": [
        0.9974731802940369,
        0.9849018454551697
      ],
      "min": [
        0.0025262697599828243,
        0.002523865085095167
      ],
      "type": "VEC2"
    },
    {
      "bufferView": 0,
      "componentType": 5125,
      "count": 576,
      "type": "SCALAR"
    },
    {
      "bufferView": 2,
      "byteOffset": 8736,
      "componentType": 5126,
      "count": 131,
      "max": [
        -0.001369178295135498,
        0.019999980926513672,
        0.8429916501045227
      ],
      "min": [
        -0.4649999737739563,
        -0.03063797950744629,
        -0.8428874611854553
      ],
      "type": "VEC3"
    },
    {
      "bufferView": 2,
      "byteOffset": 10308,
      "componentType": 5126,
      "count": 131,
      "max": [
        1.0,
        1.0,
        1.0
      ],
      "min": [
        -1.0,
        -1.0,
        -1.0
      ],
      "type": "VEC3"
    },
    {
      "bufferView": 3,
      "byteOffset": 5824,
      "componentType": 5126,
      "count": 131,
      "max": [
        1.0,
        1.0,
        1.0,
        1.0
      ],
      "min": [
        -1.0,
        -1.0,
        -1.0,
        1.0
      ],
      "type": "VEC4"
    },
    {
      "bufferView": 1,
      "byteOffset": 2912,
      "componentType": 5126,
      "count": 131,
      "max": [
        0.9469652771949768,
        0.9890821576118469
      ],
      "min": [
        0.007812162861227989,
        0.0025418796576559544
      ],
      "type": "VEC2"
    },
    {
      "bufferView": 0,
      "byteOffset": 2304,
      "componentType": 5125,
      "count": 324,
      "type": "SCALAR"
    },
    {
      "bufferView": 2,
      "byteOffset": 11880,
      "componentType": 5126,
      "count": 131,
      "max": [
        0.45399999618530273,
        0.019999980926513672,
        0.8429916501045227
      ],
      "min": [
        0.001369178295135498,
        -0.03063797950744629,
        -0.8428874611854553
      ],
      "type": "VEC3"
    },
    {
      "bufferView": 2,
      "byteOffset": 13452,
      "componentType": 5126,
      "count": 131,
      "max": [
        1.0,
        1.0,
        1.0
      ],
      "min": [
        -1.0,
        -1.0,
        -1.0
      ],
      "type": "VEC3"
    },
    {
      "bufferView": 3,
      "byteOffset": 7920,
      "componentType": 5126,
      "count": 131,
      "max": [
        1.0,
        1.0,
        1.0,
        1.0
      ],
      "min": [
        -1.0,
        -0.7960934042930603,
        -1.0,
        1.0
      ],
      "type": "VEC4"
    },
    {
      "bufferView": 1,
      "byteOffset": 3960,
      "componentType": 5126,
      "count": 131,
      "max": [
        0.9571148157119751,
        0.988871693611145
      ],
      "min": [
        0.0078117456287145615,
        0.0025562765076756477
      ],
      "type": "VEC2"
    },
    {
      "bufferView": 0,
      "byteOffset": 3600,
      "componentType": 5125,
      "count": 324,
      "type": "SCALAR"
    }
  ],
  "asset": {
    "extras": {
      "author": "Ricardo Sanchez (https://sketchfab.com/380660711785)",
      "license": "CC-BY-4.0 (http://creativecommons.org/licenses/by/4.0/)",
      "source": "https://sketchfab.com/3d-models/wooden-cupboard-6357f1f4e6934bbda8fe8a4b5e26d9c8",
      "title": "wooden cupboard"
    },
    "generator": "Sketchfab-12.68.0",
    "version": "2.0"
  },
  "bufferViews": [
    {
      "buffer": 0,
      "byteLength": 4896,
      "name": "floatBufferViews",
      "target": 34963
    },
    {
      "buffer": 0,
      "byteLength": 5008,
      "byteOffset": 4896,
      "byteStride": 8,
      "name": "floatBufferViews",
      "target": 34962
    },
    {
      "buffer": 0,
      "byteLength": 15024,
      "byteOffset": 9904,
      "byteStride": 12,
      "name": "floatBufferViews",
      "target": 34962
    },
    {
      "buffer": 0,
      "byteLength": 10016,
      "byteOffset": 24928,
      "byteStride": 16,
      "name": "floatBufferViews",
      "target": 34962
    }
  ],
  "buffers": [
    {
      "byteLength": 34944,
      "uri": "scene.bin"
    }
  ],
  "images": [
    {
      "uri": "textures/Cupboard_L_01_Material_baseColor.png"
    },
    {
      "uri": "textures/Cupboard_L_01_Material_metallicRoughness.png"
    },
    {
      "uri": "textures/Cupboard_L_01_Material_normal.png"
    }
  ],
  "materials": [
    {
      "doubleSided": true,
      "name": "Cupboard_L_01_Material",
      "normalTexture": {
        "index": 2
      },
      "occlusionTexture": {
        "index": 1
      },
      "pbrMetallicRoughness": {
        "baseColorTexture": {
          "index": 0
        },
        "metallicRoughnessTexture": {
          "index": 1
        }
      }
    }
  ],
  "meshes": [
    {
      "name": "Cupboard_L_01_Cupboard_L_01_Material_0",
      "primitives": [
        {
          "attributes": {
            "NORMAL": 1,
            "POSITION": 0,
            "TANGENT": 2,
            "TEXCOORD_0": 3
          },
          "indices": 4,
          "material": 0,
          "mode": 4
        }
      ]
    },
    {
      "name": "Cupboard_L_01_door_L_Cupboard_L_01_Material_0",
      "primitives": [
        {
          "attributes": {
            "NORMAL": 6,
            "POSITION": 5,
            "TANGENT": 7,
            "TEXCOORD_0": 8
          },
          "indices": 9,
          "material": 0,
          "mode": 4
        }
      ]
    },
    {
      "name": "Cupboard_L_01_door_R_Cupboard_L_01_Material_0",
      "primitives": [
        {
          "attributes": {
            "NORMAL": 11,
            "POSITION": 10,
            "TANGENT": 12,
            "TEXCOORD_0": 13
          },
          "indices": 14,
          "material": 0,
          "mode": 4
        }
      ]
    }
  ],
  "nodes": [
    {
      "children": [
        1
      ],
      "matrix": [
        1.0,
        0.0,
        0.0,
        0.0,
        0.0,
        2.220446049250313e-16,
        -1.0,
        0.0,
        0.0,
        1.0,
        2.220446049250313e-16,
        0.0,
        -0.35439184308052063,
        1.3973922826009418e-07,
        -0.3212008774280548,
        1.0
      ],
      "name": "Sketchfab_model"
    },
    {
      "children": [
        2
      ],
      "matrix": [
        1.0,
        0.0,
        0.0,
        0.0,
        0.0,
        0.0,
        1.0,
        0.0,
        0.0,
        -1.0,
        0.0,
        0.0,
        0.0,
        0.0,
        0.0,
        1.0
      ],
      "name": "Cupboard_02.fbx"
    },
    {
      "children": [
        3,
        5,
        7
      ],
      "name": "RootNode"
    },
    {
      "children": [
        4
      ],
      "matrix": [
        100.0,
        0.0,
        0.0,
        0.0,
        0.0,
        -1.629206793918314e-05,
        -99.99999999999868,
        0.0,
        0.0,
        99.99999999999868,
        -1.629206793918314e-05,
        0.0,
        0.0,
        0.0,
        0.0,
        1.0
      ],
      "name": "Cupboard_L_01"
    },
    {
      "mesh": 0,
      "name": "Cupboard_L_01_Cupboard_L_01_Material_0"
    },
    {
      "children": [
        6
      ],
      "matrix": [
        -64.27876276136986,
        5.551115123125783e-15,
        -76.60444280763052,
        0.0,
        -76.60444280763043,
        -4.371138984105016e-06,
        64.27876276136979,
        0.0,
        -3.34848665461962e-06,
        99.99999999999991,
        2.8097140392091546e-06,
        0.0,
        45.5,
        97.00003051757813,
        22.0001220703125,
        1.0
      ],
      "name": "Cupboard_L_01_door_L"
    },
    {
      "mesh": 1,
      "name": "Cupboard_L_01_door_L_Cupboard_L_01_Material_0"
    },
    {
      "children": [
        8
      ],
      "matrix": [
        -64.27876276136986,
        -5.551115123125783e-15,
        76.60444280763052,
        0.0,
        76.60444280763043,
        -4.371138984105016e-06,
        64.27876276136979,
        0.0,
        3.34848665461962e-06,
        99.99999999999991,
        2.8097140392091546e-06,
        0.0,
        -45.5,
        97.00003051757813,
        22.0001220703125,
        1.0
      ],
      "name": "Cupboard_L_01_door_R"
    },
    {
      "mesh": 2,
      "name": "Cupboard_L_01_door_R_Cupboard_L_01_Material_0"
    }
  ],
  "samplers": [
    {
      "magFilter": 9729,
      "minFilter": 9987,
      "wrapS": 10497,
      "wrapT": 10497
    }
  ],
  "scene": 0,
  "scenes": [
    {
      "name": "Sketchfab_Scene",
      "nodes": [
        0
      ]
    }
  ],
  "textures": [
    {
      "sampler": 0,
      "source": 0
    },
    {
      "sampler": 0,
      "source": 1
    },
    {
      "sampler": 0,
      "source": 2
    }
  ]
}
