{
  "accessors": [
    {
      "bufferView": 2,
      "componentType": 5126,
      "count": 26650,
      "max": [
        0.8620500564575195,
        -0.9070385098457336,
        0.8936110734939575
      ],
      "min": [
        -0.8601791262626648,
        -1.9184842109680176,
        -0.8308770656585693
      ],
      "type": "VEC3"
    },
    {
      "bufferView": 2,
      "byteOffset": 319800,
      "componentType": 5126,
      "count": 26650,
      "max": [
        0.999951958656311,
        0.9999972581863403,
        0.9997000694274902
      ],
      "min": [
        -0.9999819993972778,
        -1.0,
        -0.9999896287918091
      ],
      "type": "VEC3"
    },
    {
      "bufferView": 3,
      "componentType": 5126,
      "count": 26650,
      "max": [
        0.9999998807907104,
        0.9999955296516418,
        0.9999305009841919,
        1.0
      ],
      "min": [
        -0.9999991059303284,
        -0.9999637007713318,
        -0.9999900460243225,
        1.0
      ],
      "type": "VEC4"
    },
    {
      "bufferView": 1,
      "componentType": 5126,
      "count": 26650,
      "max": [
        0.8750002384185791,
        1.000000238418579
      ],
      "min": [
        0.1250000149011612,
        0.0
      ],
      "type": "VEC2"
    },
    {
      "bufferView": 1,
      "byteOffset": 213200,
      "componentType": 5126,
      "count": 26650,
      "max": [
        0.8750002384185791,
        1.000000238418579
      ],
      "min": [
        0.1250000149011612,
        0.0
      ],
      "type": "VEC2"
    },
    {
      "bufferView": 1,
      "byteOffset": 426400,
      "componentType": 5126,
      "count": 26650,
      "max": [
        0.8750002384185791,
        1.000000238418579
      ],
      "min": [
        0.1250000149011612,
        0.0
      ],
      "type": "VEC2"
    },
    {
      "bufferView": 1,
      "byteOffset": 639600,
      "componentType": 5126,
      "count": 26650,
      "max": [
        0.8750002384185791,
        1.000000238418579
      ],
      "min": [
        0.1250000149011612,
        0.0
      ],
      "type": "VEC2"
    },
    {
      "bufferView": 0,
      "componentType": 5125,
      "count": 153600,
      "type": "SCALAR"
    }
  ],
  "asset": {
    "extras": {
      "author": "Blerim Arifi (https://sketchfab.com/Blerim_Arifi)",
      "license": "CC-BY-4.0 (http://creativecommons.org/licenses/by/4.0/)",
      "source": "https://sketchfab.com/3d-models/velvet-bean-bag-bee48f52ffe5407fab1f0f8b206f4424",
      "title": "Velvet Bean Bag"
    },
    "generator": "Sketchfab-12.75.0",
    "version": "2.0"
  },
  "bufferViews": [
    {
      "buffer": 0,
      "byteLength": 614400,
      "name": "floatBufferViews",
      "target": 34963
    },
    {
      "buffer": 0,
      "byteLength": 852800,
      "byteOffset": 614400,
      "byteStride": 8,
      "name": "floatBufferViews",
      "target": 34962
    },
    {
      "buffer": 0,
      "byteLength": 639600,
      "byteOffset": 1467200,
      "byteStride": 12,
      "name": "floatBufferViews",
      "target": 34962
    },
    {
      "buffer": 0,
      "byteLength": 426400,
      "byteOffset": 2106800,
      "byteStride": 16,
      "name": "floatBufferViews",
      "target": 34962
    }
  ],
  "buffers": [
    {
      "byteLength": 2533200,
      "uri": "scene.bin"
    }
  ],
  "extensionsUsed": [
    "KHR_texture_transform"
  ],
  "images": [
    {
      "uri": "textures/Color_baseColor.jpeg"
    },
    {
      "uri": "textures/Color_metallicRoughness.png"
    },
    {
      "uri": "textures/Color_normal.jpeg"
    }
  ],
  "materials": [
    {
      "doubleSided": true,
      "name": "Color",
      "normalTexture": {
        "extensions": {
          "KHR_texture_transform": {
            "scale": [
              5,
              5
            ]
          }
        },
        "index": 2,
        "scale": 0.5672870968439303
      },
      "pbrMetallicRoughness": {
        "baseColorTexture": {
          "extensions": {
            "KHR_texture_transform": {
              "scale": [
                3.2999999999999994,
                3.2999999999999994
              ]
            }
          },
          "index": 0
        },
        "metallicRoughnessTexture": {
          "extensions": {
            "KHR_texture_transform": {
              "scale": [
                3.2999999999999994,
                3.2999999999999994
              ]
            }
          },
          "index": 1
        }
      }
    }
  ],
  "meshes": [
    {
      "name": "Object_0",
      "primitives": [
        {
          "attributes": {
            "NORMAL": 1,
            "POSITION": 0,
            "TANGENT": 2,
            "TEXCOORD_0": 3,
            "TEXCOORD_1": 4,
            "TEXCOORD_2": 5,
            "TEXCOORD_3": 6
          },
          "indices": 7,
          "material": 0,
          "mode": 4
        }
      ]
    }
  ],
  "nodes": [
    {
      "children": [
        1
      ],
      "matrix": [
        1.0,
        0.0,
        0.0,
        0.0,
        0.0,
        2.220446049250313e-16,
        -1.0,
        0.0,
        0.0,
        1.0,
        2.220446049250313e-16,
        0.0,
        0.0,
        0.0,
        0.0,
        1.0
      ],
      "name": "Sketchfab_model"
    },
    {
      "children": [
        2
      ],
      "name": "root"
    },
    {
      "children": [
        3
      ],
      "matrix": [
        1.0,
        0.0,
        0.0,
        0.0,
        0.0,
        2.220446049250313e-16,
        1.0,
        0.0,
        0.0,
        -1.0,
        2.220446049250313e-16,
        0.0,
        0.0,
        0.0,
        0.0,
        1.0
      ],
      "name": "GLTF_SceneRootNode"
    },
    {
      "children": [
        4
      ],
      "matrix": [
        1.0,
        0.0,
        0.0,
        0.0,
        0.0,
        1.0,
        0.0,
        0.0,
        0.0,
        0.0,
        1.0,
        0.0,
        0.07471609115600586,
        1.927839994430542,
        -0.04288196563720703,
        1.0
      ],
      "name": "Cube_0"
    },
    {
      "mesh": 0,
      "name": "Object_4"
    }
  ],
  "samplers": [
    {
      "magFilter": 9729,
      "minFilter": 9987,
      "wrapS": 10497,
      "wrapT": 10497
    }
  ],
  "scene": 0,
  "scenes": [
    {
      "name": "Sketchfab_Scene",
      "nodes": [
        0
      ]
    }
  ],
  "textures": [
    {
      "sampler": 0,
      "source": 0
    },
    {
      "sampler": 0,
      "source": 1
    },
    {
      "sampler": 0,
      "source": 2
    }
  ]
}
