{
  "accessors": [
    {
      "bufferView": 2,
      "componentType": 5126,
      "count": 27244,
      "max": [
        0.8771436214447021,
        0.860072672367096,
        -1.4109065532684326
      ],
      "min": [
        -0.8293101787567139,
        -0.8780651092529297,
        -2.2984187602996826
      ],
      "type": "VEC3"
    },
    {
      "bufferView": 2,
      "byteOffset": 326928,
      "componentType": 5126,
      "count": 27244,
      "max": [
        0.9999135732650757,
        0.9999678134918213,
        0.9999963045120239
      ],
      "min": [
        -0.9999339580535889,
        -0.9999712705612183,
        -1.0
      ],
      "type": "VEC3"
    },
    {
      "bufferView": 1,
      "componentType": 5126,
      "count": 27244,
      "max": [
        1.4980831146240234,
        1.8307772874832153
      ],
      "min": [
        -0.49808281660079956,
        -0.8307770490646362
      ],
      "type": "VEC2"
    },
    {
      "bufferView": 0,
      "componentType": 5125,
      "count": 147456,
      "type": "SCALAR"
    },
    {
      "bufferView": 2,
      "byteOffset": 653856,
      "componentType": 5126,
      "count": 1213,
      "max": [
        2.6189498901367188,
        2.6721301078796387,
        2.427609920501709
      ],
      "min": [
        -2.478830099105835,
        0.026443399488925934,
        -2.3767199516296387
      ],
      "type": "VEC3"
    },
    {
      "bufferView": 2,
      "byteOffset": 668412,
      "componentType": 5126,
      "count": 1213,
      "max": [
        0.9987947344779968,
        0.9995177984237671,
        0.9994847178459167
      ],
      "min": [
        -0.999498724937439,
        -0.9999999403953552,
        -0.9993307590484619
      ],
      "type": "VEC3"
    },
    {
      "bufferView": 0,
      "byteOffset": 589824,
      "componentType": 5125,
      "count": 7266,
      "type": "SCALAR"
    }
  ],
  "asset": {
    "extras": {
      "author": "Blender-Expert (https://sketchfab.com/Blender-Expert)",
      "license": "CC-BY-4.0 (http://creativecommons.org/licenses/by/4.0/)",
      "source": "https://sketchfab.com/3d-models/bean-bag-1bdb47b8ab85474b8506ebfa1580e793",
      "title": "Bean Bag"
    },
    "generator": "Sketchfab-12.68.0",
    "version": "2.0"
  },
  "bufferViews": [
    {
      "buffer": 0,
      "byteLength": 618888,
      "name": "floatBufferViews",
      "target": 34963
    },
    {
      "buffer": 0,
      "byteLength": 217952,
      "byteOffset": 618888,
      "byteStride": 8,
      "name": "floatBufferViews",
      "target": 34962
    },
    {
      "buffer": 0,
      "byteLength": 682968,
      "byteOffset": 836840,
      "byteStride": 12,
      "name": "floatBufferViews",
      "target": 34962
    }
  ],
  "buffers": [
    {
      "byteLength": 1519808,
      "uri": "scene.bin"
    }
  ],
  "materials": [
    {
      "doubleSided": true,
      "name": "Material.001",
      "pbrMetallicRoughness": {
        "baseColorFactor": [
          0.262368,
          0.0137296,
          0.0079333,
          1.0
        ],
        "metallicFactor": 0.0,
        "roughnessFactor": 0.9852035734946689
      }
    }
  ],
  "meshes": [
    {
      "name": "bean bag high poly_Material.001_0",
      "primitives": [
        {
          "attributes": {
            "NORMAL": 1,
            "POSITION": 0,
            "TEXCOORD_0": 2
          },
          "indices": 3,
          "material": 0,
          "mode": 4
        }
      ]
    },
    {
      "name": "bean bag low poly_Material.001_0",
      "primitives": [
        {
          "attributes": {
            "NORMAL": 5,
            "POSITION": 4
          },
          "indices": 6,
          "material": 0,
          "mode": 4
        }
      ]
    }
  ],
  "nodes": [
    {
      "children": [
        1
      ],
      "matrix": [
        1.0,
        0.0,
        0.0,
        0.0,
        0.0,
        2.220446049250313e-16,
        -1.0,
        0.0,
        0.0,
        1.0,
        2.220446049250313e-16,
        0.0,
        0.0,
        0.0,
        0.0,
        1.0
      ],
      "name": "Sketchfab_model"
    },
    {
      "children": [
        2
      ],
      "matrix": [
        1.0,
        0.0,
        0.0,
        0.0,
        0.0,
        0.0,
        1.0,
        0.0,
        0.0,
        -1.0,
        0.0,
        0.0,
        0.0,
        0.0,
        0.0,
        1.0
      ],
      "name": "673d650cbb6e4d6486181d63759018ae.fbx"
    },
    {
      "children": [
        3,
        6,
        8,
        10
      ],
      "name": "RootNode"
    },
    {
      "children": [
        4
      ],
      "matrix": [
        -29.08647719990347,
        -5.518906457566863,
        -95.51711910171437,
        0.0,
        56.63930913109449,
        79.46723428563203,
        -21.83912397841966,
        0.0,
        77.11008775993375,
        -60.45246356562044,
        -19.98834696773717,
        0.0,
        407.6245422363281,
        590.38623046875,
        -100.54539489746094,
        1.0
      ],
      "name": "Light"
    },
    {
      "children": [
        5
      ],
      "matrix": [
        1.0,
        0.0,
        0.0,
        0.0,
        0.0,
        2.220446049250313e-16,
        1.0,
        0.0,
        0.0,
        -1.0,
        2.220446049250313e-16,
        0.0,
        0.0,
        0.0,
        0.0,
        1.0
      ],
      "name": "Object_4"
    },
    {
      "name": "Object_5"
    },
    {
      "children": [
        7
      ],
      "matrix": [
        -65.15583280329096,
        -44.52713576570858,
        -61.41703047373549,
        0.0,
        -32.40134137821245,
        89.53957451233616,
        -30.542088974418615,
        0.0,
        68.59205472129975,
        -1.0718647115348782e-05,
        -72.7676336239627,
        0.0,
        735.88916015625,
        495.8309326171875,
        692.5791015625,
        1.0
      ],
      "name": "Camera"
    },
    {
      "name": "Object_7"
    },
    {
      "children": [
        9
      ],
      "matrix": [
        298.9369201660156,
        0.0,
        0.0,
        0.0,
        0.0,
        -4.505681566872581e-05,
        -276.55676269530886,
        0.0,
        0.0,
        298.9369201660117,
        -4.8703006128748934e-05,
        0.0,
        0.0,
        689.7947998046875,
        0.0,
        1.0
      ],
      "name": "bean bag high poly"
    },
    {
      "mesh": 0,
      "name": "bean bag high poly_Material.001_0"
    },
    {
      "children": [
        11
      ],
      "matrix": [
        100.0,
        0.0,
        0.0,
        0.0,
        0.0,
        99.99999999999866,
        1.6292067073209114e-05,
        0.0,
        0.0,
        -1.6292067073209114e-05,
        99.99999999999866,
        0.0,
        0.0,
        0.0,
        -580.0399169921875,
        1.0
      ],
      "name": "bean bag low poly"
    },
    {
      "mesh": 1,
      "name": "bean bag low poly_Material.001_0"
    }
  ],
  "scene": 0,
  "scenes": [
    {
      "name": "Sketchfab_Scene",
      "nodes": [
        0
      ]
    }
  ]
}
