{
  "accessors": [
    {
      "bufferView": 2,
      "componentType": 5126,
      "count": 1502,
      "max": [
        0.4201803505420685,
        0.3888528645038605,
        0.2751736044883728
      ],
      "min": [
        -0.4201803505420685,
        -0.42313045263290405,
        -0.37365227937698364
      ],
      "type": "VEC3"
    },
    {
      "bufferView": 2,
      "byteOffset": 18024,
      "componentType": 5126,
      "count": 1502,
      "max": [
        0.9882366061210632,
        0.9997813105583191,
        0.9997812509536743
      ],
      "min": [
        -0.9882365465164185,
        -0.9997813105583191,
        -0.999816358089447
      ],
      "type": "VEC3"
    },
    {
      "bufferView": 3,
      "componentType": 5126,
      "count": 1502,
      "max": [
        0.9993534088134766,
        0.9997808933258057,
        0.9997810125350952,
        1.0
      ],
      "min": [
        -0.9996457695960999,
        -0.9997809529304504,
        -0.9997810125350952,
        -1.0
      ],
      "type": "VEC4"
    },
    {
      "bufferView": 1,
      "componentType": 5126,
      "count": 1502,
      "max": [
        0.9907227158546448,
        1.0
      ],
      "min": [
        0.0,
        0.0
      ],
      "type": "VEC2"
    },
    {
      "bufferView": 0,
      "componentType": 5125,
      "count": 6288,
      "type": "SCALAR"
    },
    {
      "bufferView": 2,
      "byteOffset": 36048,
      "componentType": 5126,
      "count": 472,
      "max": [
        0.34264126420021057,
        0.39718157052993774,
        0.44963693618774414
      ],
      "min": [
        -0.34264126420021057,
        -0.36296308040618896,
        -0.18400093913078308
      ],
      "type": "VEC3"
    },
    {
      "bufferView": 2,
      "byteOffset": 41712,
      "componentType": 5126,
      "count": 472,
      "max": [
        0.9998735785484314,
        0.9970975518226624,
        0.9997474551200867
      ],
      "min": [
        -0.9998735189437866,
        -0.9964724183082581,
        -0.9950055480003357
      ],
      "type": "VEC3"
    },
    {
      "bufferView": 3,
      "byteOffset": 24032,
      "componentType": 5126,
      "count": 472,
      "max": [
        0.9580537676811218,
        0.9949418306350708,
        0.9992651343345642,
        1.0
      ],
      "min": [
        -1.0,
        -0.9950059056282043,
        -0.5651972889900208,
        1.0
      ],
      "type": "VEC4"
    },
    {
      "bufferView": 1,
      "byteOffset": 12016,
      "componentType": 5126,
      "count": 472,
      "max": [
        0.9997631907463074,
        0.9854719638824463
      ],
      "min": [
        0.00023681650054641068,
        0.00023681650054641068
      ],
      "type": "VEC2"
    },
    {
      "bufferView": 0,
      "byteOffset": 25152,
      "componentType": 5125,
      "count": 2196,
      "type": "SCALAR"
    }
  ],
  "asset": {
    "extras": {
      "author": "LEE2021 (https://sketchfab.com/ll2018lly)",
      "license": "CC-BY-4.0 (http://creativecommons.org/licenses/by/4.0/)",
      "source": "https://sketchfab.com/3d-models/sofa-lowpoly-364c6721c1c04f39ae6b2ac2bd442425",
      "title": "Sofa_LowPoly"
    },
    "generator": "Sketchfab-13.70.0",
    "version": "2.0"
  },
  "bufferViews": [
    {
      "buffer": 0,
      "byteLength": 33936,
      "name": "floatBufferViews",
      "target": 34963
    },
    {
      "buffer": 0,
      "byteLength": 15792,
      "byteOffset": 33936,
      "byteStride": 8,
      "name": "floatBufferViews",
      "target": 34962
    },
    {
      "buffer": 0,
      "byteLength": 47376,
      "byteOffset": 49728,
      "byteStride": 12,
      "name": "floatBufferViews",
      "target": 34962
    },
    {
      "buffer": 0,
      "byteLength": 31584,
      "byteOffset": 97104,
      "byteStride": 16,
      "name": "floatBufferViews",
      "target": 34962
    }
  ],
  "buffers": [
    {
      "byteLength": 128688,
      "uri": "scene.bin"
    }
  ],
  "images": [
    {
      "uri": "textures/Sofa2_baseColor.png"
    },
    {
      "uri": "textures/Sofa2_metallicRoughness.png"
    },
    {
      "uri": "textures/Sofa2_normal.png"
    },
    {
      "uri": "textures/Sofa1_baseColor.png"
    },
    {
      "uri": "textures/Sofa1_metallicRoughness.png"
    },
    {
      "uri": "textures/Sofa1_normal.png"
    }
  ],
  "materials": [
    {
      "doubleSided": true,
      "name": "Sofa2",
      "normalTexture": {
        "index": 2
      },
      "pbrMetallicRoughness": {
        "baseColorTexture": {
          "index": 0
        },
        "metallicRoughnessTexture": {
          "index": 1
        }
      }
    },
    {
      "doubleSided": true,
      "name": "Sofa1",
      "normalTexture": {
        "index": 5
      },
      "pbrMetallicRoughness": {
        "baseColorTexture": {
          "index": 3
        },
        "metallicFactor": 0.0,
        "metallicRoughnessTexture": {
          "index": 4
        }
      }
    }
  ],
  "meshes": [
    {
      "name": "Sofa_Sofa2_0",
      "primitives": [
        {
          "attributes": {
            "NORMAL": 1,
            "POSITION": 0,
            "TANGENT": 2,
            "TEXCOORD_0": 3
          },
          "indices": 4,
          "material": 0,
          "mode": 4
        }
      ]
    },
    {
      "name": "Sofa_Sofa1_0",
      "primitives": [
        {
          "attributes": {
            "NORMAL": 6,
            "POSITION": 5,
            "TANGENT": 7,
            "TEXCOORD_0": 8
          },
          "indices": 9,
          "material": 1,
          "mode": 4
        }
      ]
    }
  ],
  "nodes": [
    {
      "children": [
        1
      ],
      "matrix": [
        1.0,
        0.0,
        0.0,
        0.0,
        0.0,
        2.220446049250313e-16,
        -1.0,
        0.0,
        0.0,
        1.0,
        2.220446049250313e-16,
        0.0,
        0.0,
        0.0,
        0.0,
        1.0
      ],
      "name": "Sketchfab_model"
    },
    {
      "children": [
        2
      ],
      "matrix": [
        0.009999999776482582,
        0.0,
        0.0,
        0.0,
        0.0,
        0.0,
        0.009999999776482582,
        0.0,
        0.0,
        -0.009999999776482582,
        0.0,
        0.0,
        0.0,
        0.0,
        0.0,
        1.0
      ],
      "name": "f2d3ec5ca657480d8ef1f01d2b1785ed.fbx"
    },
    {
      "children": [
        3
      ],
      "name": "RootNode"
    },
    {
      "children": [
        4,
        5
      ],
      "matrix": [
        100.0,
        0.0,
        0.0,
        0.0,
        0.0,
        -1.629206793918314e-05,
        -99.99999999999868,
        0.0,
        0.0,
        99.99999999999868,
        -1.629206793918314e-05,
        0.0,
        0.0,
        37.270511627197266,
        0.0,
        1.0
      ],
      "name": "Sofa"
    },
    {
      "mesh": 0,
      "name": "Sofa_Sofa2_0"
    },
    {
      "mesh": 1,
      "name": "Sofa_Sofa1_0"
    }
  ],
  "samplers": [
    {
      "magFilter": 9729,
      "minFilter": 9987,
      "wrapS": 10497,
      "wrapT": 10497
    }
  ],
  "scene": 0,
  "scenes": [
    {
      "name": "Sketchfab_Scene",
      "nodes": [
        0
      ]
    }
  ],
  "textures": [
    {
      "sampler": 0,
      "source": 0
    },
    {
      "sampler": 0,
      "source": 1
    },
    {
      "sampler": 0,
      "source": 2
    },
    {
      "sampler": 0,
      "source": 3
    },
    {
      "sampler": 0,
      "source": 4
    },
    {
      "sampler": 0,
      "source": 5
    }
  ]
}
