{
  "accessors": [
    {
      "bufferView": 2,
      "componentType": 5126,
      "count": 12723,
      "max": [
        0.4523007273674011,
        1.3253743648529053,
        0.171972393989563
      ],
      "min": [
        -0.45230066776275635,
        0.0,
        -0.17196685075759888
      ],
      "type": "VEC3"
    },
    {
      "bufferView": 2,
      "byteOffset": 152676,
      "componentType": 5126,
      "count": 12723,
      "max": [
        1.0,
        1.0,
        1.0
      ],
      "min": [
        -1.0,
        -1.0,
        -1.0
      ],
      "type": "VEC3"
    },
    {
      "bufferView": 3,
      "componentType": 5126,
      "count": 12723,
      "max": [
        1.0,
        1.0,
        1.0,
        1.0
      ],
      "min": [
        -1.0,
        -1.0,
        -1.0,
        -1.0
      ],
      "type": "VEC4"
    },
    {
      "bufferView": 1,
      "componentType": 5126,
      "count": 12723,
      "max": [
        0.9970846772193909,
        0.9949914216995239
      ],
      "min": [
        0.002915317192673683,
        0.002915317192673683
      ],
      "type": "VEC2"
    },
    {
      "bufferView": 0,
      "componentType": 5125,
      "count": 47568,
      "type": "SCALAR"
    },
    {
      "bufferView": 2,
      "byteOffset": 305352,
      "componentType": 5126,
      "count": 4654,
      "max": [
        0.45008450746536255,
        0.6045057773590088,
        0.023523081094026566
      ],
      "min": [
        0.0,
        -0.6045058369636536,
        -0.01933867298066616
      ],
      "type": "VEC3"
    },
    {
      "bufferView": 2,
      "byteOffset": 361200,
      "componentType": 5126,
      "count": 4654,
      "max": [
        1.0,
        1.0,
        1.0
      ],
      "min": [
        -1.0,
        -1.0,
        -1.0
      ],
      "type": "VEC3"
    },
    {
      "bufferView": 3,
      "byteOffset": 203568,
      "componentType": 5126,
      "count": 4654,
      "max": [
        1.0,
        1.0,
        1.0,
        1.0
      ],
      "min": [
        -1.0,
        -1.0,
        -1.0,
        -1.0
      ],
      "type": "VEC4"
    },
    {
      "bufferView": 1,
      "byteOffset": 101784,
      "componentType": 5126,
      "count": 4654,
      "max": [
        0.9961122274398804,
        0.9966519474983215
      ],
      "min": [
        0.0029153169598430395,
        0.002915317192673683
      ],
      "type": "VEC2"
    },
    {
      "bufferView": 0,
      "byteOffset": 190272,
      "componentType": 5125,
      "count": 17412,
      "type": "SCALAR"
    }
  ],
  "asset": {
    "extras": {
      "author": "AleixoAlonso (https://sketchfab.com/AleixoAlonso)",
      "license": "CC-BY-4.0 (http://creativecommons.org/licenses/by/4.0/)",
      "source": "https://sketchfab.com/3d-models/wooden-cupboard-with-door-72644db8d4914b23b2570f6a2f3b00e2",
      "title": "Wooden Cupboard with Door"
    },
    "generator": "Sketchfab-12.67.0",
    "version": "2.0"
  },
  "bufferViews": [
    {
      "buffer": 0,
      "byteLength": 259920,
      "name": "floatBufferViews",
      "target": 34963
    },
    {
      "buffer": 0,
      "byteLength": 139016,
      "byteOffset": 259920,
      "byteStride": 8,
      "name": "floatBufferViews",
      "target": 34962
    },
    {
      "buffer": 0,
      "byteLength": 417048,
      "byteOffset": 398936,
      "byteStride": 12,
      "name": "floatBufferViews",
      "target": 34962
    },
    {
      "buffer": 0,
      "byteLength": 278032,
      "byteOffset": 815984,
      "byteStride": 16,
      "name": "floatBufferViews",
      "target": 34962
    }
  ],
  "buffers": [
    {
      "byteLength": 1094016,
      "uri": "scene.bin"
    }
  ],
  "images": [
    {
      "uri": "textures/CPB0001_Cupboard_baseColor.png"
    },
    {
      "uri": "textures/CPB0001_Cupboard_metallicRoughness.png"
    },
    {
      "uri": "textures/CPB0001_Cupboard_normal.png"
    }
  ],
  "materials": [
    {
      "doubleSided": true,
      "name": "CPB0001_Cupboard",
      "normalTexture": {
        "index": 2
      },
      "pbrMetallicRoughness": {
        "baseColorTexture": {
          "index": 0
        },
        "metallicFactor": 0.0,
        "metallicRoughnessTexture": {
          "index": 1
        }
      }
    }
  ],
  "meshes": [
    {
      "name": "Object_0",
      "primitives": [
        {
          "attributes": {
            "NORMAL": 1,
            "POSITION": 0,
            "TANGENT": 2,
            "TEXCOORD_0": 3
          },
          "indices": 4,
          "material": 0,
          "mode": 4
        }
      ]
    },
    {
      "name": "Object_1",
      "primitives": [
        {
          "attributes": {
            "NORMAL": 6,
            "POSITION": 5,
            "TANGENT": 7,
            "TEXCOORD_0": 8
          },
          "indices": 9,
          "material": 0,
          "mode": 4
        }
      ]
    }
  ],
  "nodes": [
    {
      "children": [
        1
      ],
      "matrix": [
        1.0,
        0.0,
        0.0,
        0.0,
        0.0,
        2.220446049250313e-16,
        -1.0,
        0.0,
        0.0,
        1.0,
        2.220446049250313e-16,
        0.0,
        0.0,
        0.0,
        0.0,
        1.0
      ],
      "name": "Sketchfab_model"
    },
    {
      "children": [
        2
      ],
      "name": "root"
    },
    {
      "children": [
        3,
        5
      ],
      "matrix": [
        1.0,
        0.0,
        0.0,
        0.0,
        0.0,
        2.220446049250313e-16,
        1.0,
        0.0,
        0.0,
        -1.0,
        2.220446049250313e-16,
        0.0,
        0.0,
        0.0,
        0.0,
        1.0
      ],
      "name": "GLTF_SceneRootNode"
    },
    {
      "children": [
        4
      ],
      "name": "#CPB0001_Wood_Gray_133x90x34_Door_Left_0"
    },
    {
      "mesh": 0,
      "name": "Object_4"
    },
    {
      "children": [
        6
      ],
      "matrix": [
        1.0,
        0.0,
        0.0,
        0.0,
        0.0,
        1.0,
        0.0,
        0.0,
        0.0,
        0.0,
        1.0,
        0.0,
        -0.4462205767631531,
        0.6384742259979248,
        0.16982710361480713,
        1.0
      ],
      "name": "#CPB0001_Door_1"
    },
    {
      "mesh": 1,
      "name": "Object_6"
    }
  ],
  "samplers": [
    {
      "magFilter": 9729,
      "minFilter": 9987,
      "wrapS": 10497,
      "wrapT": 10497
    }
  ],
  "scene": 0,
  "scenes": [
    {
      "name": "Sketchfab_Scene",
      "nodes": [
        0
      ]
    }
  ],
  "textures": [
    {
      "sampler": 0,
      "source": 0
    },
    {
      "sampler": 0,
      "source": 1
    },
    {
      "sampler": 0,
      "source": 2
    }
  ]
}
